<?xml version="1.0" encoding="UTF-8" standalone="no"?>
<!DOCTYPE svg PUBLIC "-//W3C//DTD SVG 1.1//EN" "http://www.w3.org/Graphics/SVG/1.1/DTD/svg11.dtd">
<svg width="100%" height="100%" viewBox="0 0 104 30" version="1.1" xmlns="http://www.w3.org/2000/svg" xmlns:xlink="http://www.w3.org/1999/xlink" xml:space="preserve" xmlns:serif="http://www.serif.com/" style="fill-rule:evenodd;clip-rule:evenodd;stroke-linejoin:round;stroke-miterlimit:2;">
    <g transform="matrix(1.13379,0,0,1.13379,-327.111,-343.745)">
        <path d="M300.86,329.643C296.732,329.643 293.642,328.563 291.59,326.403C289.538,324.243 288.512,321.051 288.512,316.827C288.512,313.995 289.04,311.631 290.096,309.735C291.152,307.839 292.688,306.411 294.704,305.451C296.72,304.491 299.156,304.011 302.012,304.011C303.74,304.011 305.366,304.209 306.89,304.605C308.414,305.001 309.758,305.589 310.922,306.369C312.086,307.149 312.992,308.127 313.64,309.303C314.288,310.479 314.612,311.847 314.612,313.407L307.016,313.407C307.016,312.879 306.89,312.399 306.638,311.967C306.386,311.535 306.044,311.169 305.612,310.869C305.18,310.569 304.682,310.341 304.118,310.185C303.554,310.029 302.96,309.951 302.336,309.951C301.4,309.951 300.572,310.077 299.852,310.329C299.132,310.581 298.538,310.959 298.07,311.463C297.602,311.967 297.248,312.567 297.008,313.263C296.768,313.959 296.648,314.763 296.648,315.675L296.648,317.979C296.648,319.179 296.858,320.205 297.278,321.057C297.698,321.909 298.334,322.563 299.186,323.019C300.038,323.475 301.088,323.703 302.336,323.703C303.176,323.703 303.95,323.577 304.658,323.325C305.366,323.073 305.936,322.707 306.368,322.227C306.8,321.747 307.016,321.195 307.016,320.571L307.016,320.427L301.4,320.427L301.4,315.387L314.612,315.387L314.612,329.211L310.508,329.211L309.716,326.763C308.972,327.387 308.156,327.915 307.268,328.347C306.38,328.779 305.408,329.103 304.352,329.319C303.296,329.535 302.132,329.643 300.86,329.643Z" style="fill:white;fill-rule:nonzero;"/>
        <rect x="318.14" y="304.443" width="7.956" height="24.768" style="fill:white;fill-rule:nonzero;"/>
        <path d="M329.732,329.211L329.732,304.443L349.748,304.443L349.748,310.383L337.688,310.383L337.688,314.631L348.056,314.631L348.056,320.319L337.688,320.319L337.688,329.211L329.732,329.211Z" style="fill:white;fill-rule:nonzero;"/>
        <path d="M353.456,307.359L354.212,303.183L358.604,303.183L357.884,307.359L353.456,307.359ZM349.676,329.211L353.024,310.275L357.416,310.275L354.068,329.211L349.676,329.211Z" style="fill:rgb(255,43,92);fill-rule:nonzero;"/>
        <path d="M364.04,329.643C363.008,329.643 362.21,329.469 361.646,329.121C361.082,328.773 360.68,328.317 360.44,327.753C360.2,327.189 360.08,326.571 360.08,325.899C360.08,325.707 360.092,325.515 360.116,325.323C360.14,325.131 360.164,324.939 360.188,324.747L362.06,313.875L359.792,313.875L360.404,310.275L362.78,310.275L364.508,304.983L368,304.983L367.064,310.275L370.34,310.275L369.728,313.875L366.452,313.875L364.688,323.847C364.664,323.919 364.634,324.087 364.598,324.351C364.562,324.615 364.544,324.771 364.544,324.819C364.544,325.203 364.658,325.503 364.886,325.719C365.114,325.935 365.456,326.043 365.912,326.043L367.604,326.043L367.064,329.067C366.824,329.163 366.53,329.253 366.182,329.337C365.834,329.421 365.474,329.493 365.102,329.553C364.73,329.613 364.376,329.643 364.04,329.643Z" style="fill:rgb(255,43,92);fill-rule:nonzero;"/>
        <path d="M372.788,322.407L374.768,304.515L379.88,304.515L375.524,322.407L372.788,322.407ZM370.7,329.211L371.528,324.603L376.1,324.603L375.272,329.211L370.7,329.211Z" style="fill:rgb(255,43,92);fill-rule:nonzero;"/>
    </g>
</svg>
