<?xml version="1.0" encoding="UTF-8" standalone="no"?>
<!DOCTYPE svg PUBLIC "-//W3C//DTD SVG 1.1//EN" "http://www.w3.org/Graphics/SVG/1.1/DTD/svg11.dtd">
<svg width="100%" height="100%" viewBox="0 0 512 512" version="1.1" xmlns="http://www.w3.org/2000/svg" xmlns:xlink="http://www.w3.org/1999/xlink" xml:space="preserve" xmlns:serif="http://www.serif.com/" style="fill-rule:evenodd;clip-rule:evenodd;stroke-linejoin:round;stroke-miterlimit:2;">
    <rect id="Artboard1" x="0" y="0" width="512" height="512" style="fill:none;"/>
    <g id="Artboard11" serif:id="Artboard1">
        <g transform="matrix(1,0,0,1,-5,0)">
            <g transform="matrix(13.4483,0,0,13.4483,-3866.99,-4004.78)">
                <path d="M300.86,329.643C296.732,329.643 293.642,328.563 291.59,326.403C289.538,324.243 288.512,321.051 288.512,316.827C288.512,313.995 289.04,311.631 290.096,309.735C291.152,307.839 292.688,306.411 294.704,305.451C296.72,304.491 299.156,304.011 302.012,304.011C303.74,304.011 305.366,304.209 306.89,304.605C308.414,305.001 309.758,305.589 310.922,306.369C312.086,307.149 312.992,308.127 313.64,309.303C314.288,310.479 314.612,311.847 314.612,313.407L307.016,313.407C307.016,312.879 306.89,312.399 306.638,311.967C306.386,311.535 306.044,311.169 305.612,310.869C305.18,310.569 304.682,310.341 304.118,310.185C303.554,310.029 302.96,309.951 302.336,309.951C301.4,309.951 300.572,310.077 299.852,310.329C299.132,310.581 298.538,310.959 298.07,311.463C297.602,311.967 297.248,312.567 297.008,313.263C296.768,313.959 296.648,314.763 296.648,315.675L296.648,317.979C296.648,319.179 296.858,320.205 297.278,321.057C297.698,321.909 298.334,322.563 299.186,323.019C300.038,323.475 301.088,323.703 302.336,323.703C303.176,323.703 303.95,323.577 304.658,323.325C305.366,323.073 305.936,322.707 306.368,322.227C306.8,321.747 307.016,321.195 307.016,320.571L307.016,320.427L301.4,320.427L301.4,315.387L314.612,315.387L314.612,329.211L310.508,329.211L309.716,326.763C308.972,327.387 308.156,327.915 307.268,328.347C306.38,328.779 305.408,329.103 304.352,329.319C303.296,329.535 302.132,329.643 300.86,329.643Z" style="fill:white;fill-rule:nonzero;"/>
            </g>
            <g transform="matrix(13.8054,0,0,13.8054,-4732.41,-4122.55)">
                <path d="M372.788,322.407L374.768,304.515L379.88,304.515L375.524,322.407L372.788,322.407ZM370.7,329.211L371.528,324.603L376.1,324.603L375.272,329.211L370.7,329.211Z" style="fill:rgb(255,43,92);fill-rule:nonzero;"/>
            </g>
        </g>
    </g>
</svg>
